<svg xmlns="http://www.w3.org/2000/svg" width="480" height="270" viewBox="0 0 480 270"><rect width="100%" height="100%" fill="#DDDDDD"/><path fill="#999999" d="M111.28 135.16h8.04q2.96 0 5.16-.74t3.66-2.12q1.46-1.38 2.18-3.36.72-1.98.72-4.42 0-2.32-.72-4.2-.72-1.88-2.16-3.2-1.44-1.32-3.64-2.02t-5.2-.7h-8.04v20.76Zm-10.76-29.08h18.8q5.8 0 10.04 1.36 4.24 1.36 7 3.8 2.76 2.44 4.1 5.84 1.34 3.4 1.34 7.44 0 4.2-1.4 7.7t-4.2 6.02q-2.8 2.52-7.02 3.92t-9.86 1.4h-8.04v20.36h-10.76v-57.84Zm87.48 0h10.8v57.84H188v-25.28h-27.16v25.28h-10.8v-57.84h10.8v24.88H188v-24.88ZM266.84 135q0 6.36-2.1 11.78-2.1 5.42-5.94 9.38-3.84 3.96-9.24 6.18-5.4 2.22-12 2.22-6.56 0-11.96-2.22-5.4-2.22-9.26-6.18-3.86-3.96-5.98-9.38-2.12-5.42-2.12-11.78 0-6.36 2.12-11.78 2.12-5.42 5.98-9.38 3.86-3.96 9.26-6.18 5.4-2.22 11.96-2.22 4.4 0 8.28 1.02 3.88 1.02 7.12 2.88 3.24 1.86 5.82 4.52 2.58 2.66 4.38 5.94 1.8 3.28 2.74 7.12.94 3.84.94 8.08Zm-11 0q0-4.76-1.28-8.54-1.28-3.78-3.64-6.42-2.36-2.64-5.74-4.04-3.38-1.4-7.62-1.4t-7.62 1.4q-3.38 1.4-5.76 4.04t-3.66 6.42q-1.28 3.78-1.28 8.54t1.28 8.54q1.28 3.78 3.66 6.4 2.38 2.62 5.76 4.02 3.38 1.4 7.62 1.4t7.62-1.4q3.38-1.4 5.74-4.02 2.36-2.62 3.64-6.4 1.28-3.78 1.28-8.54Zm60.88-28.92v8.84h-17.44v49h-10.76v-49h-17.44v-8.84h45.64ZM379.48 135q0 6.36-2.1 11.78-2.1 5.42-5.94 9.38-3.84 3.96-9.24 6.18-5.4 2.22-12 2.22-6.56 0-11.96-2.22-5.4-2.22-9.26-6.18-3.86-3.96-5.98-9.38-2.12-5.42-2.12-11.78 0-6.36 2.12-11.78 2.12-5.42 5.98-9.38 3.86-3.96 9.26-6.18 5.4-2.22 11.96-2.22 4.4 0 8.28 1.02 3.88 1.02 7.12 2.88 3.24 1.86 5.82 4.52 2.58 2.66 4.38 5.94 1.8 3.28 2.74 7.12.94 3.84.94 8.08Zm-11 0q0-4.76-1.28-8.54-1.28-3.78-3.64-6.42-2.36-2.64-5.74-4.04-3.38-1.4-7.62-1.4t-7.62 1.4q-3.38 1.4-5.76 4.04t-3.66 6.42q-1.28 3.78-1.28 8.54t1.28 8.54q1.28 3.78 3.66 6.4 2.38 2.62 5.76 4.02 3.38 1.4 7.62 1.4t7.62-1.4q3.38-1.4 5.74-4.02 2.36-2.62 3.64-6.4 1.28-3.78 1.28-8.54Z"/></svg>